<?xml version="1.0" standalone="no"?><!DOCTYPE svg PUBLIC "-//W3C//DTD SVG 1.1//EN" "http://www.w3.org/Graphics/SVG/1.1/DTD/svg11.dtd"><svg t="1614070570825" class="icon" viewBox="0 0 1024 1024" version="1.1" xmlns="http://www.w3.org/2000/svg" p-id="955" xmlns:xlink="http://www.w3.org/1999/xlink" width="128" height="128"><defs><style type="text/css"></style></defs><path d="M904.75586805 912.0003125H164.75524305a30 30 0 0 1-30-30V141.9996875a30 30 0 0 1 60 0v710.000625h710.000625a30 30 0 0 1 0 60zM854.75524305 812h-60a40.0003125 40.0003125 0 0 1-39.999375-40.0003125V332a40.0003125 40.0003125 0 0 1 39.999375-40.0003125h60A40.0003125 40.0003125 0 0 1 894.75555555 332v439.9996875A40.0003125 40.0003125 0 0 1 854.75524305 812z m-240 0h-60a40.0003125 40.0003125 0 0 1-39.999375-40.0003125v-360a40.0003125 40.0003125 0 0 1 39.999375-39.999375h60A40.0003125 40.0003125 0 0 1 654.75555555 411.9996875v360A40.0003125 40.0003125 0 0 1 614.75524305 812z m-240 0h-60a40.0003125 40.0003125 0 0 1-39.999375-40.0003125V252.0003125A40.0003125 40.0003125 0 0 1 314.75524305 212h60A40.0003125 40.0003125 0 0 1 414.75555555 252.0003125v519.999375A40.0003125 40.0003125 0 0 1 374.75524305 812z" fill="#7dc2e6" p-id="956"></path></svg>