<?xml version="1.0" standalone="no"?><!DOCTYPE svg PUBLIC "-//W3C//DTD SVG 1.1//EN" "http://www.w3.org/Graphics/SVG/1.1/DTD/svg11.dtd"><svg t="1617550249032" class="icon" viewBox="0 0 1024 1024" version="1.1" xmlns="http://www.w3.org/2000/svg" p-id="4529" xmlns:xlink="http://www.w3.org/1999/xlink" width="200" height="200"><defs><style type="text/css"></style></defs><path d="M510.34 447.586l219.134-219.254c17.57-17.58 46.06-17.586 63.64-0.02 17.58 17.57 17.586 46.064 0.018 63.64L573.98 511.228l219.352 219.352c17.574 17.572 17.574 46.066 0 63.64-17.574 17.572-46.066 17.572-63.64 0L510.358 574.882 291.224 794.138c-17.568 17.58-46.06 17.586-63.64 0.018-17.578-17.568-17.586-46.06-0.016-63.64l219.15-219.272-217.82-217.82c-17.574-17.574-17.574-46.068 0-63.64 17.574-17.574 46.066-17.574 63.64 0L510.34 447.586z" p-id="4530" data-spm-anchor-id="a313x.7781069.0.i3" class="selected" fill="#dd6572"></path></svg>