<?xml version="1.0" standalone="no"?><!DOCTYPE svg PUBLIC "-//W3C//DTD SVG 1.1//EN" "http://www.w3.org/Graphics/SVG/1.1/DTD/svg11.dtd"><svg t="1614072541208" class="icon" viewBox="0 0 1024 1024" version="1.1" xmlns="http://www.w3.org/2000/svg" p-id="955" xmlns:xlink="http://www.w3.org/1999/xlink" width="128" height="128"><defs><style type="text/css"></style></defs><path d="M514.72613767 918.462108a385.778196 385.778196 0 1 1 385.778196-385.778197 385.778196 385.778196 0 0 1-385.778196 385.778197z" fill="#7dc2e6" p-id="956"></path><path d="M214.32804562 537.06080498a300.98047461 133.7691001 0 1 0 601.96095044 0 300.98047461 133.7691001 0 1 0-601.96095044 0Z" fill="#FFFFFF" p-id="957"></path><path d="M515.30852145 537.06080498m-100.32682567 0a100.32682447 100.32682447 0 1 0 200.65365014 0 100.32682447 100.32682447 0 1 0-200.65365014 0Z" fill="#7dc2e6" p-id="958"></path><path d="M514.72613767 532.649467m-55.111171 0a55.111171 55.111171 0 1 0 110.222341 0 55.111171 55.111171 0 1 0-110.222341 0Z" fill="#272528" p-id="959"></path><path d="M490.22681412 511.97909887m-16.72113661 0a16.72113781 16.72113781 0 1 0 33.44227443 0 16.72113781 16.72113781 0 1 0-33.44227443 0Z" fill="#FFFFFF" p-id="960"></path></svg>