<?xml version="1.0" standalone="no"?><!DOCTYPE svg PUBLIC "-//W3C//DTD SVG 1.1//EN" "http://www.w3.org/Graphics/SVG/1.1/DTD/svg11.dtd"><svg t="1614072503830" class="icon" viewBox="0 0 1024 1024" version="1.1" xmlns="http://www.w3.org/2000/svg" p-id="1818" xmlns:xlink="http://www.w3.org/1999/xlink" width="128" height="128"><defs><style type="text/css"></style></defs><path d="M702.31835938 171.81054662c-10.44140625 0-18.8789065 19.82812525-18.87890651 30.48046926 0 10.652344 8.43750025 30.21679688 18.8789065 30.21679687h37.91601538c47.9882815 0 68.18554688 38.23242162 68.18554687 77.414062v458.7890625c0 41.1328125-20.19726537 80.3671875-68.18554687 80.3671875H267.52343725c-34.910156 0-65.1796875-44.34960963-65.1796875-80.41992137V309.92187475c0-31.79882813 36.28125025-77.41406275 65.1796875-77.414062h37.96875c10.38867162 0 18.82617188-19.56445287 18.82617187-30.21679687 0-10.652344-8.43750025-30.4804685-18.82617187-30.48046926h-37.96875C198.81054713 171.81054662 142.85937475 233.72070312 142.85937475 309.97460937v458.68359401c0 76.14843775 55.89843775 138.11132813 124.6640625 138.11132812h472.7109375c68.76562475 0 124.6640625-61.9101565 124.6640625-138.11132812V309.92187475c0-76.14843775-55.89843775-138.16406275-124.6640625-138.164062h-37.96875z" fill="#7dc2e6" p-id="1819"></path><path d="M286.29687525 733.484375c0 14.5546875 6.4335935 26.36718725 14.39648438 26.36718725h438.644531c7.96289088-0.527344 14.18554662-12.7617185 13.86914037-27.36914063-0.26367162-13.76367188-6.328125-24.83789063-13.86914037-25.36523387H300.69335963c-7.96289088 0-14.39648438 11.81249975-14.39648438 26.36718725z m53.05078075-96.87304713l60.38085988-269.78906199-41.1328125-13.183594-71.34960938 40.23632837c-11.60156275 13.07812475-11.07421875 26.578125 1.58203125 40.6054685 3.95507813 4.37695287 9.80859375 5.800781 19.195312 5.1679685l28.68750025-13.02539012-51.67968725 210.04101537h54.31640575zM566.05273412 504.08984375c2.6367185-15.8203125 4.00781275-31.95703125 4.00781276-48.14648463-1.84570287-59.69531275-22.1484375-92.2851565-61.17187475-96.87304637-52.417969 2.21484375-84.48046875 50.20312525-95.13281275 142.5937495-1.58203125 12.65625-2.47851537 25.4179685-2.6367185 38.23242238 0 62.06835963 19.93359375 95.23828125 59.80078125 98.66601537 49.83398438-1.05468725 81.79101563-46.300781 95.13281199-134.47265625z m-108.94921849 37.8632815c0-9.86132838 0.6328125-19.722656 1.8984375-29.42578125 7.85742162-65.23242213 22.51757838-99.50976563 43.13671849-101.83007863 5.0625 0.26367162 20.56640625 1.05468725 20.56640625 49.25390651-0.15820313 12.07617213-1.10742188 24.046875-2.84765625 35.85937474v0.15820313c-7.22460912 60.80273463-21.19921875 92.390625-41.08007787 94.02539088-5.1679685-0.6328125-20.83007787-2.26757838-21.6210935-48.04101538z m222.85546849-182.8828125c-52.47070287 2.21484375-84.53320338 50.20312525-95.13281199 142.5937495-1.63476588 12.65625-2.53125 25.4179685-2.63671926 38.23242238 0 62.06835963 19.93359375 95.23828125 59.74804738 98.66601537 49.886719-1.05468725 81.89648412-46.300781 95.18554663-134.57812475 2.6367185-15.8203125 4.00781275-31.95703125 4.06054662-48.09375-1.8984375-59.64257813-22.20117213-92.2851565-61.22460938-96.8203125z m11.07421875 136.7929685v0.15820313c-7.27734375 60.75-21.25195338 92.33789037-41.1328125 93.97265624-5.1679685-0.527344-20.777344-2.21484375-21.62109349-48.04101537 0-9.86132838 0.58007787-19.722656 1.84570287-29.42578125 7.85742162-65.23242213 22.57031225-99.50976563 43.13671925-101.83007863 5.11523463 0.26367162 20.56640625 1.05468725 20.56640625 49.25390651a269.99999975 269.99999975 0 0 1-2.84765625 35.85937474z m-281.91796875-251.01562475h188.94726588A62.753906 62.753906 0 0 0 659.91992188 181.35546875v-1.58203125C659.91992188 144.8632815 632.234375 116.54492213 598.00976537 116.4921875H409.11523412C374.89062525 116.4921875 347.20507838 144.8632815 347.15234375 179.82617213v1.58203125c0 34.96289063 27.7382815 63.28125 61.96289037 63.3867185z m-10.7578125-64.86328125c0-12.128906 9.597656-21.93749975 21.46289113-21.9375005h167.53710938c11.86523438 0 21.46289037 9.80859375 21.46289037 21.9375005v1.42382813c0 12.128906-9.597656 21.93749975-21.46289037 21.93749974H419.82031275a21.72656275 21.72656275 0 0 1-21.46289113-21.93749974v-1.42382813z" fill="#1296db" p-id="1820"></path></svg>