<?xml version="1.0" standalone="no"?><!DOCTYPE svg PUBLIC "-//W3C//DTD SVG 1.1//EN" "http://www.w3.org/Graphics/SVG/1.1/DTD/svg11.dtd"><svg t="1614071172323" class="icon" viewBox="0 0 1024 1024" version="1.1" xmlns="http://www.w3.org/2000/svg" p-id="955" xmlns:xlink="http://www.w3.org/1999/xlink" width="128" height="128"><defs><style type="text/css"></style></defs><path d="M692 601.9775l-0.09 6.525c-3.375 131.49-109.35 237.4875-240.8175 240.93L444.5 849.5l-6.48-0.0675c-131.5125-3.375-237.4875-109.35-240.93-240.8625L197 602h97.5825a78.75 78.75 0 0 0 142.335 0H692zM489.5 669.5a67.5 67.5 0 1 0 0 135 67.5 67.5 0 0 0 0-135z" fill="#7dc2e6" p-id="956"></path><path d="M399.5 152v45h-0.0225L399.5 356.3675l-31.1625 10.0575A247.68 247.68 0 0 0 201.095 557h86.715a78.75 78.75 0 0 1 155.88 0h244.215a247.725 247.725 0 0 0-160.9425-188.4375l-6.3-2.1375-31.14-10.0575L489.5 242h-22.5a22.5 22.5 0 0 1 0-45h22.5V152h-90z m135 171.6075c102.375 33.075 180.0225 121.005 198.36 229.14l0.7875 5.0625 0.0675 0.45 1.0575 7.6275 0.4725 3.9375c0.2925 2.61 0.54 5.22 0.765 7.875l0.1575 2.1375c0.225 3.1725 0.45 6.345 0.5625 9.54l0.09 2.52c0.1125 3.33 0.18 6.6825 0.18 10.0575V602a292.275 292.275 0 0 1-136.575 247.5225L782 849.5V242H534.5v81.6075z m0.945 508.6575l2.6325-1.08-0.9675 0.405 2.8575-1.17 0.7425-0.315 2.565-1.1025 1.1025-0.495 1.305-0.5625 1.6425-0.765-1.485 0.675a246.42 246.42 0 0 0 22.905-11.745l2.34-1.395 0.1125-0.0675 1.26-0.765 0.315-0.1575 0.8325-0.54 0.945-0.585 1.62-1.0125 0.675-0.4275 1.215-0.7425 2.2275-1.4625-1.5975 1.0125 4.5675-2.9925c1.665-1.125 3.33-2.2725 4.95-3.465l0.0225-0.0225 6.525-4.7925a248.7375 248.7375 0 0 0 14.76-12.2175l-2.1375 1.845 2.385-2.07 1.6425-1.53-1.575 1.44 1.8-1.575 1.035-0.9675-0.495 0.45a249.0525 249.0525 0 0 0 9.9225-9.675l-0.2025 0.18 1.08-1.125 1.44-1.485 2.295-2.43-0.4725 0.45 0.585-0.63 0.3375-0.36 0.54-0.6075 0.9-0.99 0.6525-0.72 0.1125-0.09 0.405-0.495 1.1475-1.305 1.6425-1.89 0.225-0.225c3.8925-4.59 7.65-9.2925 11.205-14.13l1.1025-1.5075 0.2925-0.45-0.945 1.2825 3.3525-4.6575 3.6675-5.4 1.5525-2.43 0.135-0.225 0.495-0.7875 0.1125-0.1575 0.045-0.0675 0.585-0.9 0.1125-0.225 0.0675-0.0675a246.6675 246.6675 0 0 0 23.85-49.8825l0.0225-0.0675 0.315-0.9225 0.1575-0.45 0.495-1.4175v-0.045l0.945-2.9025a246.69 246.69 0 0 0 9.54-42.75l0.0675-0.495 0.6975-5.985a248.535 248.535 0 0 0 1.26-19.53l0.09-6.525H436.94a78.75 78.75 0 0 1-142.38 0H197a249.3 249.3 0 0 0 9.2025 67.095c2.43 8.6625 5.3325 17.145 8.6625 25.4025l1.845 4.455 1.9125 4.41 2.7 5.805 2.835 5.715 0.135 0.225 0.8775 1.6875-0.405-0.7875 0.45 0.8775 0.585 1.125 0.0225 0.0225 0.7425 1.4175 0.225 0.405 0.3375 0.585 0.3375 0.6525 0.2475 0.45 0.135 0.225 0.18 0.3375 0.27 0.45 0.2025 0.3825 2.9025 5.04a247.5 247.5 0 0 0 3.24 5.31l0.54 0.8775 0.045 0.0675 0.36 0.5625 0.27 0.405 0.1125 0.2025 0.3825 0.5625 0.675 1.0575 0.5175 0.81 1.215 1.8 0.2925 0.45 0.225 0.36 0.27 0.3825 0.1125 0.1575 0.8325 1.1925 0.54 0.81 0.18 0.2475 0.54 0.765 0.4275 0.6075 0.18 0.27 0.405 0.5625 0.0675 0.09 0.27 0.3825 0.495 0.6975 0.945 1.305-0.6075-0.855 2.8575 3.87c1.215 1.62 2.475 3.24 3.7125 4.815l0.225 0.27 0.99 1.215 0.09 0.1125 0.135 0.2025-1.44-1.8c2.6325 3.3075 5.3325 6.525 8.1 9.675l0.6075 0.6975 0.135 0.1575 0.2925 0.315 0.09 0.1125 0.6525 0.72 1.8 1.98 0.0225 0.045 0.54 0.5625 0.9675 1.0575 0.36 0.3825 1.4175 1.485-0.855-0.9 1.1025 1.17 0.27 0.27 0.9 0.9225 3.645 3.69 4.68 4.5 0.045 0.0675 1.53 1.4175-0.4725-0.45 0.855 0.7875 1.9575 1.8 0.0675 0.045 0.2925 0.2475 2.2725 2.025 2.6775 2.295 1.305 1.1025 0.2925 0.2475 0.675 0.5625 1.125 0.9225 0.2475 0.2025 0.81 0.6525 0.1575 0.135 4.77 3.7575 4.8825 3.645c3.195 2.34 6.48 4.6125 9.81 6.8175l0.18 0.1125 2.07 1.35 0.135 0.09 0.2475 0.1575 1.62 1.035 1.2825 0.7875-0.2025-0.1125 2.3625 1.44 0.2925 0.18 1.2825 0.7875 0.1125 0.045 1.215 0.72 0.3825 0.225 0.4275 0.2475 0.315 0.18 0.0225 0.045 2.925 1.6425-1.3275-0.7425 1.305 0.7425 2.385 1.3275 0.99 0.54 2.4075 1.2825-1.665-0.8775 1.62 0.8775 2.115 1.08-0.81-0.4275 4.725 2.4075c1.8675 0.9225 3.7575 1.845 5.67 2.7225l0.2025 0.09 5.535 2.475c1.9125 0.8325 3.825 1.6425 5.7825 2.43l2.8125 1.1025 2.0475 0.765-3.42-1.305 3.375 1.305 2.565 0.945 0.945 0.36 3.0825 1.1025 1.98 0.6525 0.675 0.225 0.225 0.09-0.225-0.09 0.315 0.1125 2.7225 0.9c19.8 6.3 40.725 10.1925 62.325 11.295l6.4575 0.27L444.5 849.5c5.5125 0 10.98-0.18 16.425-0.54l8.1-0.675 6.705-0.7425 6.66-0.9225a245.925 245.925 0 0 0 35.865-8.3025l1.4625-0.4725 2.8125-0.9 0.9675-0.3375 0.18-0.0675h0.0225l1.665-0.585 4.1175-1.44c2.0025-0.72 3.9825-1.485 5.9625-2.25zM489.5 669.5a67.5 67.5 0 1 1 0 135 67.5 67.5 0 0 1 0-135z m0 45a22.5 22.5 0 1 0 0 45 22.5 22.5 0 0 0 0-45z m-123.75-180a33.975 33.975 0 0 0-5.5575 0.45l-1.035 0.2025a33.5475 33.5475 0 0 0-14.1075 6.435l-0.9675 0.7875-1.4625 1.305-0.7425 0.6975a33.975 33.975 0 0 0-6.5025 9.135l-0.5625 1.215a33.525 33.525 0 0 0-0.7425 1.8675l-0.135 0.3825a33.75 33.75 0 1 0 64.71 3.6l-1.08-3.6-0.135-0.3825-0.36-0.9225-0.18-0.45 0.5175 1.3725-0.72-1.8675-0.5625-1.215a33.615 33.615 0 0 0-5.175-7.695l-0.6525-0.72-1.4175-1.4175-1.4625-1.305a33.975 33.975 0 0 0-16.11-7.425A34.02 34.02 0 0 0 365.75 534.5zM534.5 197h247.5V129.5a22.5 22.5 0 0 1 45 0v67.5h22.5a22.5 22.5 0 0 1 0 45h-22.5v607.5h56.25a33.75 33.75 0 0 1 0 67.5h-742.5a33.75 33.75 0 0 1 0-67.5h147.825A292.275 292.275 0 0 1 152 602v-0.0675l0.1575-10.035 0.1125-2.52c0.135-3.195 0.315-6.3675 0.5625-9.54l0.1575-2.16a290.295 290.295 0 0 1 1.0575-10.395c13.5675-114.75 93.555-209.1375 200.475-243.675L354.5 152h-22.5a22.5 22.5 0 0 1 0-45h225a22.5 22.5 0 0 1 0 45h-22.5v45z" fill="#1296db" p-id="957"></path></svg>