<?xml version="1.0" standalone="no"?><!DOCTYPE svg PUBLIC "-//W3C//DTD SVG 1.1//EN" "http://www.w3.org/Graphics/SVG/1.1/DTD/svg11.dtd"><svg t="1614072442148" class="icon" viewBox="0 0 1165 1024" version="1.1" xmlns="http://www.w3.org/2000/svg" p-id="1098" xmlns:xlink="http://www.w3.org/1999/xlink" width="145.625" height="128"><defs><style type="text/css"></style></defs><path d="M792.48532703 116.4921875a40.91460111 40.91460111 0 0 1 35.45932089 20.45730094l204.57300631 354.59321062a40.91460111 40.91460111 0 0 1 0 40.91460188l-204.57300631 354.59321062A40.91460111 40.91460111 0 0 1 792.48532703 907.5078125H383.33931364a40.91460111 40.91460111 0 0 1-35.4593209-20.45730094l-204.57300632-354.59321062a40.91460111 40.91460111 0 0 1 0-40.91460188l204.57300632-354.59321062A40.91460111 40.91460111 0 0 1 383.33931364 116.4921875h409.14601338zM587.91232071 716.57300631a34.09550106 34.09550106 0 1 0 0-68.1910021c-75.32378079 0-136.38200421-61.0582234-136.38200497-136.38200421s61.0582234-136.38200421 136.38200497-136.38200421 136.38200421 61.0582234 136.38200422 136.38200421a34.09550106 34.09550106 0 1 0 68.1910021 0c0-112.97885215-91.59415415-204.57300631-204.57300632-204.57300631-112.97885215 0-204.57300631 91.59415415-204.57300707 204.57300631 0 112.97885215 91.59415415 204.57300631 204.57300707 204.5730063z" fill="#7dc2e6" p-id="1099"></path></svg>