<?xml version="1.0" standalone="no"?><!DOCTYPE svg PUBLIC "-//W3C//DTD SVG 1.1//EN" "http://www.w3.org/Graphics/SVG/1.1/DTD/svg11.dtd"><svg t="1614069404399" class="icon" viewBox="0 0 1024 1024" version="1.1" xmlns="http://www.w3.org/2000/svg" p-id="1991" xmlns:xlink="http://www.w3.org/1999/xlink" width="128" height="128"><defs><style type="text/css"></style></defs><path d="M376.8 436.2h270.5c9 0 16.3 7.3 16.3 16.3v68.4c0 9-7.3 16.3-16.3 16.3H376.8c-9 0-16.3-7.3-16.3-16.3v-68.4c0-9 7.3-16.3 16.3-16.3z" fill="#1296db" p-id="1992"></path><path d="M477.9 335.2h68.4c9 0 16.3 7.3 16.3 16.3V622c0 9-7.3 16.3-16.3 16.3h-68.4c-9 0-16.3-7.3-16.3-16.3V351.5c0-9 7.3-16.3 16.3-16.3z" fill="#1296db" p-id="1993"></path><path d="M512.09375001 962C312.3125 962 109.4375 672.59375001 109.4375 464.65624999V227.75c0-20.4375 13.03125001-38.53125001 32.4375-44.90625001L497.09374999 64.4375c9.75-3.28125001 20.25-3.28125001 29.90625001 0l355.3125 118.40625001c19.3125 6.46875001 32.4375 24.5625 32.4375 44.90624999v236.8125c0 208.03125001-202.96875001 497.4375-402.65625001 497.4375zM204.21874999 261.96874999v202.68750002C204.21874999 633.96875001 382.625 867.3125 512.09375001 867.3125c132.375 0 307.875-229.5 307.87499998-402.65625001V261.96874999L512.09375001 159.3125 204.21874999 261.96874999z" fill="#7dc2e6" p-id="1994"></path></svg>