<?xml version="1.0" standalone="no"?><!DOCTYPE svg PUBLIC "-//W3C//DTD SVG 1.1//EN" "http://www.w3.org/Graphics/SVG/1.1/DTD/svg11.dtd"><svg t="1614072483051" class="icon" viewBox="0 0 1024 1024" version="1.1" xmlns="http://www.w3.org/2000/svg" p-id="1677" xmlns:xlink="http://www.w3.org/1999/xlink" width="128" height="128"><defs><style type="text/css"></style></defs><path d="M838.1093235 116.80195046H264.35958099c-28.6874485 0-51.89108848 23.20286751-51.89108848 51.890316v156.51603699h-65.39011002c-3.37572097 0-6.749897 1.26531601-9.2813015 3.7967205-2.53140449 2.53140449-3.79672051 5.906353-3.79672049 9.28130151v26.156044c0 3.37572097 1.26531601 6.749897 3.79672049 9.28130151s5.906353 3.79672051 9.2813015 3.79672049h65.39011002v104.62572098h-65.39011002c-3.37572097 0-6.749897 1.26531601-9.2813015 3.79672051s-3.79672051 5.906353-3.79672049 9.2813015v26.156044c0 3.3749485 1.26531601 6.749897 3.79672049 9.28130151s5.906353 3.79672051 9.2813015 3.7967205h65.39011002v104.20317649h-65.39011002c-3.37572097 0-6.749897 1.26531601-9.2813015 3.79672051-2.53140449 2.53140449-3.79672051 5.906353-3.79672049 9.28130149v26.15604401c0 7.17244148 5.90558052 13.078022 13.07802199 13.07802201h65.39011002v156.51603698c0 28.6874485 23.20363999 51.89031601 52.31208801 51.89031601h573.32874298c28.6874485 0 51.89031601-23.20286751 51.890316-51.89031601V168.69226646c0-28.6874485-23.20286751-51.89031601-51.890316-51.890316z m-156.51526451 729.84323501H264.35958099V690.13069344h65.39011002c7.17244148 0 13.078022-5.906353 13.07802201-13.07802201v-26.15604401c0-3.37572097-1.26531601-6.749897-3.79672051-9.28130149-2.53063203-2.53140449-5.906353-3.79672051-9.2813015-3.79672051h-65.39011002V533.61388398h64.96833801c3.37572097 0 6.749897-1.26608848 9.28130151-3.79672051 2.53140449-2.53140449 3.79672051-5.906353 3.7967205-9.2813015v-26.15604401c0-3.37572097-1.26531601-6.75066948-3.7967205-9.28207397s-5.906353-3.79672051-9.28130151-3.79672051H264.35958099V377.52039147h65.39011002c3.37572097 0 6.75066948-1.26531601 9.2813015-3.79672051s3.79749297-5.906353 3.79749299-9.2813015v-26.156044c0-3.3749485-1.26608848-6.749897-3.79749299-9.28130151s-5.906353-3.79672051-9.2813015-3.7967205h-65.39011002V168.69226646h417.234478v677.95369149z" fill="#7dc2e6" p-id="1678"></path><path d="M532.67146302 379.63002395l47.25005149-47.25005149c4.64103698-5.06203652 4.64103698-13.078022 0-18.140831l-18.984375-18.984375c-5.06203652-5.06203652-13.078022-5.06203652-18.14005851 0l-46.8282795 47.67259598-47.2500515-47.2500515c-5.06280899-5.06280899-13.078022-5.06280899-18.14083099 0l-18.984375 18.984375c-5.06203652 5.06203652-5.06203652 13.078022 0 18.14005852l47.2500515 47.25005151-47.2500515 46.82827949c-5.06203652 5.06280899-5.06203652 13.078022 0 18.14083098l18.984375 18.984375c5.06280899 5.06203652 13.078022 5.06203652 18.14083099 0l47.2500515-47.25005148 47.2500515 47.25005148c5.06203652 4.6402645 13.078022 4.6402645 18.14083099 0l18.984375-18.984375c5.06203652-5.06280899 5.06203652-13.078022 0-18.14083098l-47.67182349-47.25005151z m93.65655898 184.35916901l-18.984375-18.984375c-5.06203652-5.06203652-13.078022-5.06203652-17.71828651 0l-98.29759599 98.29759598c-2.95240403 2.95240403-7.59344101 2.95240403-10.5466175 0l-31.21885299-31.218853a10.69416047 10.69416047 0 0 0-15.18688203 0l-21.51577949 21.51500702a10.69416047 10.69416047 0 0 0 0 15.1876545l64.54656601 64.54733848c5.06280899 5.06203652 12.65625 5.06203652 17.71905899 0l28.26490403-28.26567649L626.75056648 581.70825195c4.21926499-4.6402645 4.21926499-12.65625-0.421772-17.71905899z" fill="#1296db" p-id="1679"></path></svg>