<?xml version="1.0" standalone="no"?><!DOCTYPE svg PUBLIC "-//W3C//DTD SVG 1.1//EN" "http://www.w3.org/Graphics/SVG/1.1/DTD/svg11.dtd"><svg t="1614072465689" class="icon" viewBox="0 0 1024 1024" version="1.1" xmlns="http://www.w3.org/2000/svg" p-id="1387" xmlns:xlink="http://www.w3.org/1999/xlink" width="128" height="128"><defs><style type="text/css"></style></defs><path d="M659.96359253 369.36175537c-1.05633545 90.03982544-73.37905883 162.36172485-163.41888428 163.41970825-90.05383301 1.05633545-162.3765564-74.96850586-163.4147644-163.41970825-0.66659546-56.78668213-88.78985596-56.8526001-88.12243653 0 1.62158203 138.09072876 113.4456482 249.91973877 251.53637695 251.5413208C634.6486206 622.5246582 746.49246216 505.01269531 748.08602906 369.36175537c0.66824341-56.8526001-87.45336914-56.78668213-88.12243653 0z" fill="#1296db" p-id="1388"></path><path d="M333.12994385 358.04693604c1.05715943-90.03735352 73.37576294-162.36172485 163.4147644-163.41888429 90.05383301-1.05715943 162.37902832 74.96768188 163.41888428 163.41888429 0.66906738 56.7875061 88.79067993 56.8526001 88.12243653 0C746.46609497 219.95620727 634.63955688 108.12225342 496.54470825 106.50561523c-138.10144043-1.61746216-249.94528198 115.89202881-251.53637695 251.54132081-0.66824341 56.8526001 87.45584107 56.7875061 88.12161255 0z" fill="#7dc2e6" p-id="1389"></path><path d="M273.31433105 881.13568115c0.53558349-61.54101563 24.01473999-119.09234619 66.63317872-163.12966919 43.85110474-45.31448364 103.91720581-69.32427979 166.36376953-69.86810303 61.13809204-0.5322876 119.64276123 24.54702758 163.12966919 66.63235474 45.31448364 43.85110474 69.32098388 103.91885376 69.86480713 166.36459351 0.49685669 56.79821778 88.61764526 56.8460083 88.12161254 0-1.53012085-175.94082641-145.17114258-319.59091187-321.11608886-321.12020874-175.9606018-1.52764893-319.60739136 147.47991943-321.12020875 321.12020874-0.49520874 56.84683227 87.62887573 56.79904175 88.12326051 0.00082397z" fill="#7dc2e6" p-id="1390"></path></svg>