<?xml version="1.0" standalone="no"?><!DOCTYPE svg PUBLIC "-//W3C//DTD SVG 1.1//EN" "http://www.w3.org/Graphics/SVG/1.1/DTD/svg11.dtd"><svg t="1614661339217" class="icon" viewBox="0 0 1024 1024" version="1.1" xmlns="http://www.w3.org/2000/svg" p-id="995" xmlns:xlink="http://www.w3.org/1999/xlink" width="200" height="200"><defs><style type="text/css"></style></defs><path d="M512.1 512.1m-342.8 0a342.8 342.8 0 1 0 685.6 0 342.8 342.8 0 1 0-685.6 0Z" fill="#75AFCC" p-id="996"></path><path d="M960.1 512.1c0 247.4-200.6 448-448 448s-448-200.6-448-448 200.6-448 448-448 448 200.6 448 448z" fill="#1296db" p-id="997"></path><path d="M377.3 270.4c0 16.5 13.4 29.9 29.9 29.9H537c16.5 0 29.9-13.4 29.9-29.9V267c0-16.5-13.4-29.9-29.9-29.9H407.2c-16.5 0-29.9 13.4-29.9 29.9v3.4z" fill="#F7F1E6" p-id="998"></path><path d="M412.4 421V272.2h119.4V422c14 15.3 166.2 251.2 166.2 293.8 0 29.5-24.2 55-53.7 55H305.5c-29.5 0-51.2-25.5-51.2-55 0-45.5 144-276.7 158.1-294.8z" fill="#F7F1E6" p-id="999"></path><path d="M647 693.6c0 22.8-18.5 42.1-41.3 42.1H344c-22.8 0-41.3-19.2-41.3-42.1 0-18.7 52.7-112.4 78.6-147.6H568c26 35.2 79 129.5 79 147.6z" fill="#e98f36" p-id="1000"></path><path d="M412.4 701.7c7.1 18.6 27.9 28 46.5 20.9 18.6-7.1 28-27.9 20.9-46.6-7.1-18.6-27.9-28-46.6-20.9-18.6 7.2-27.9 28-20.8 46.6z" fill="#E3DDD2" p-id="1001"></path><path d="M396.4 612c3.8 10 15 15.1 25.1 11.2 10-3.8 15-15.1 11.2-25.1-3.8-10-15.1-15.1-25.1-11.3-10 3.9-15 15.2-11.2 25.2zM494.3 598.3c2.6 6.8 10.1 10.2 16.9 7.6 6.8-2.6 10.1-10.1 7.6-16.9-2.6-6.8-10.1-10.2-16.9-7.6-6.8 2.6-10.1 10.1-7.6 16.9z" fill="#FFFFFF" p-id="1002"></path><path d="M626.3 272c0 6.9 5.6 12.4 12.5 12.4h82.9c6.9 0 12.5-5.6 12.5-12.4v-11c0-6.9-5.6-12.4-12.5-12.4h-82.9c-6.9 0-12.5 5.6-12.5 12.4v11z" fill="#F7F1E6" p-id="1003"></path><path d="M680.2 618.5c20.8 0 37.7-16.9 37.7-37.7V257.6h-75.4v323.2a37.6 37.6 0 0 0 37.7 37.7z" fill="#F7F1E6" p-id="1004"></path><path d="M680.2 618.5c20.8 0 37.7-16.9 37.7-37.7V392.6h-75.4v188.2a37.6 37.6 0 0 0 37.7 37.7z" fill="#f1bd50" p-id="1005"></path><path d="M666.4 448.2c0 10.2 8.3 18.5 18.5 18.5s18.5-8.3 18.5-18.5-8.3-18.5-18.5-18.5-18.5 8.3-18.5 18.5zM689.8 530.2c0 5.5 4.5 9.9 9.9 9.9 5.5 0 9.9-4.5 9.9-9.9 0-5.5-4.5-9.9-9.9-9.9-5.5 0-9.9 4.4-9.9 9.9zM659.5 585.6c0 5.5 4.5 9.9 9.9 9.9 5.5 0 9.9-4.5 9.9-9.9 0-5.5-4.5-9.9-9.9-9.9-5.5 0-9.9 4.4-9.9 9.9z" fill="#FFFFFF" p-id="1006"></path></svg>