<?xml version="1.0" standalone="no"?><!DOCTYPE svg PUBLIC "-//W3C//DTD SVG 1.1//EN" "http://www.w3.org/Graphics/SVG/1.1/DTD/svg11.dtd"><svg t="1617804127909" class="icon" viewBox="0 0 1024 1024" version="1.1" xmlns="http://www.w3.org/2000/svg" p-id="1186" xmlns:xlink="http://www.w3.org/1999/xlink" width="200" height="200"><defs><style type="text/css"></style></defs><path d="M256 240v32c0 19.2 12.8 48 32 48h448c19.2 0 32-28.8 32-48v-32c0-16-16-16-32-16h-96V131.2C640 57.6 582.4 0 512 0s-128 57.6-128 131.2V224H288s-32 0-32 16z m256-150.4c35.2 0 64 28.8 64 64s-28.8 64-64 64-64-28.8-64-64 28.8-64 64-64z" fill="#707070" p-id="1187"></path><path d="M832 128h-160v64h160c19.2 0 32 0 32 16V928c0 19.2-12.8 32-32 32H192c-19.2 0-32-12.8-32-32V208C160 192 172.8 192 192 192h160V128H192c-54.4 0-96 28.8-96 80V928c0 54.4 41.6 96 96 96h640c54.4 0 96-41.6 96-96V208C928 156.8 886.4 128 832 128z" fill="#1296db" p-id="1188"></path><path d="M512 864c19.2 0 32-12.8 32-32v-307.2l105.6 105.6c6.4 6.4 16 9.6 22.4 9.6s16-3.2 22.4-9.6c12.8-12.8 12.8-32 0-44.8l-160-160c-12.8-12.8-32-12.8-44.8 0l-160 160c-12.8 12.8-12.8 32 0 44.8s32 12.8 44.8 0l105.6-105.6V832c0 19.2 12.8 32 32 32z" fill="#dd6572" p-id="1189"></path></svg>