<?xml version="1.0" standalone="no"?><!DOCTYPE svg PUBLIC "-//W3C//DTD SVG 1.1//EN" "http://www.w3.org/Graphics/SVG/1.1/DTD/svg11.dtd"><svg t="1617451984225" class="icon" viewBox="0 0 1024 1024" version="1.1" xmlns="http://www.w3.org/2000/svg" p-id="14266" xmlns:xlink="http://www.w3.org/1999/xlink" width="200" height="200"><defs><style type="text/css"></style></defs><path d="M126.586 62h770.828c35.1 0 63.182 28.081 63.182 64.586 0 35.102-28.082 64.587-64.587 64.587H126.586C90.081 189.769 62 161.688 62 126.586 62 90.081 90.081 62 126.586 62z m0 256.942h513.885c35.101 0 64.587 28.081 64.587 64.587 0 35.101-28.081 64.587-64.587 64.587H126.586c-35.1 0-64.586-28.081-64.586-64.587s28.081-64.587 64.586-64.587z m0 256.942h770.828c35.1 0 64.586 28.081 64.586 64.587 0 35.101-28.081 64.587-64.586 64.587H126.586c-35.1 0-64.586-28.081-64.586-64.587s28.081-64.587 64.586-64.587z m0 256.943h513.885c35.101 0 64.587 28.081 64.587 64.587 0 35.1-28.081 64.586-64.587 64.586H126.586C90.081 960.596 62 932.514 62 896.01c0-35.102 28.081-63.183 64.586-63.183z" p-id="14267" data-spm-anchor-id="a313x.7781069.0.i0" class="selected" fill="#1296db"></path></svg>