<svg width="973" height="297"
    xmlns="http://www.w3.org/2000/svg">
    <!-- Created with Method Draw - http://github.com/duopixel/Method-Draw/ -->

    <g>
        <title>background</title>
        <rect fill="none" id="canvas_background" height="299" width="975" y="-1" x="-1"/>
        <g display="none" overflow="visible" y="0" x="0" height="100%" width="100%" id="canvasGrid">
        </g>
    </g>
    <g>
        <title>Layer 1</title>
        <defs>
            <style type="text/css"/>
        </defs>
        <rect stroke="#000000" rx="20" stroke-opacity="0" id="svg_16" height="240.000007" width="894.999904" y="36.5" x="39.000061" stroke-width="1.5" fill="#1296db"/>
        <g stroke="null" id="svg_15">
            <path stroke="null" id="svg_4" p-id="996" fill="#75AFCC" d="m163.50003,149.500001m-41.770978,0a41.770978,42.536158 0 1 0 83.541956,0a41.770978,42.536158 0 1 0 -83.541956,0z"/>
            <path stroke="null" id="svg_5" p-id="997" fill="#1296db" d="m218.089873,149.500001c0,30.698499 -24.443577,55.589844 -54.589843,55.589844s-54.589843,-24.891346 -54.589843,-55.589844s24.443577,-55.589844 54.589843,-55.589844s54.589843,24.891346 54.589843,55.589844z"/>
            <path stroke="null" id="svg_6" p-id="998" fill="#F7F1E6" d="m147.074336,119.508783c0,2.047394 1.632821,3.710126 3.643385,3.710126l15.816432,0c2.010563,0 3.643385,-1.662732 3.643385,-3.710126l0,-0.421887c0,-2.047394 -1.632821,-3.710126 -3.643385,-3.710126l-15.816432,0c-2.010563,0 -3.643385,1.662732 -3.643385,3.710126l0,0.421887z"/>
            <path stroke="null" id="svg_7" p-id="999" fill="#F7F1E6" d="m151.351353,138.195905l0,-18.46377l14.549168,0l0,18.587854c1.705933,1.898492 20.251857,31.17002 20.251857,36.456019c0,3.660492 -2.948826,6.824646 -6.54347,6.824646l-41.283569,0c-3.594644,0 -6.238839,-3.164154 -6.238839,-6.824646c0,-5.645844 17.546735,-34.334174 19.264853,-36.580103z"/>
            <path stroke="null" id="svg_8" p-id="1000" fill="#e98f36" d="m179.937909,172.021333c0,2.829126 -2.254268,5.223956 -5.032501,5.223956l-31.888754,0c-2.778233,0 -5.032501,-2.382422 -5.032501,-5.223956c0,-2.32038 6.421618,-13.947095 9.577593,-18.314868l22.74983,0c3.168161,4.367773 9.626334,16.068939 9.626334,18.314868z"/>
            <path stroke="null" id="svg_9" p-id="1001" fill="#E3DDD2" d="m151.351353,173.026417c0.865152,2.307971 3.39968,3.474365 5.666133,2.593366c2.266453,-0.881 3.411865,-3.461957 2.546714,-5.782336c-0.865152,-2.307971 -3.39968,-3.474365 -5.678319,-2.593366c-2.266453,0.893408 -3.39968,3.474365 -2.534528,5.782336z"/>
            <path stroke="null" id="svg_10" p-id="1002" fill="#FFFFFF" d="m149.401716,161.89604c0.463039,1.240845 1.827785,1.873676 3.058493,1.389746c1.218523,-0.471521 1.827785,-1.873676 1.364746,-3.11452c-0.463039,-1.240845 -1.83997,-1.873676 -3.058493,-1.402155c-1.218523,0.483929 -1.827785,1.886084 -1.364746,3.126929zm11.929343,-1.699957c0.316816,0.843774 1.230709,1.265662 2.059304,0.943042c0.828596,-0.32262 1.230709,-1.253253 0.926078,-2.097028c-0.316816,-0.843774 -1.230709,-1.265662 -2.059304,-0.943042c-0.828596,0.32262 -1.230709,1.253253 -0.926078,2.097028z"/>
            <path stroke="null" id="svg_11" p-id="1003" fill="#F7F1E6" d="m177.415566,119.707318c0,0.856183 0.682373,1.538647 1.523154,1.538647l10.101558,0c0.840781,0 1.523154,-0.694873 1.523154,-1.538647l0,-1.364929c0,-0.856183 -0.682373,-1.538647 -1.523154,-1.538647l-10.101558,0c-0.840781,0 -1.523154,0.694873 -1.523154,1.538647l0,1.364929z"/>
            <path stroke="null" id="svg_12" p-id="1004" fill="#F7F1E6" d="m183.983406,162.702589c2.534528,0 4.593833,-2.097028 4.593833,-4.677985l0,-40.104102l-9.187666,0l0,40.104102a4.581648,4.665576 0 0 0 4.593833,4.677985z"/>
            <path stroke="null" id="svg_13" p-id="1005" fill="#f1bd50" d="m183.983406,162.702589c2.534528,0 4.593833,-2.097028 4.593833,-4.677985l0,-23.352698l-9.187666,0l0,23.352698a4.581648,4.665576 0 0 0 4.593833,4.677985z"/>
            <path stroke="null" id="svg_14" p-id="1006" fill="#FFFFFF" d="m182.301844,141.571003c0,1.265662 1.011374,2.295563 2.254268,2.295563s2.254268,-1.029901 2.254268,-2.295563s-1.011374,-2.295563 -2.254268,-2.295563s-2.254268,1.029901 -2.254268,2.295563zm2.851344,10.174927c0,0.682465 0.548335,1.228436 1.206338,1.228436c0.670188,0 1.206338,-0.55838 1.206338,-1.228436c0,-0.682465 -0.548335,-1.228436 -1.206338,-1.228436c-0.670188,0 -1.206338,0.545972 -1.206338,1.228436zm-3.692126,6.87428c0,0.682465 0.548335,1.228436 1.206338,1.228436c0.670188,0 1.206338,-0.55838 1.206338,-1.228436c0,-0.682465 -0.548335,-1.228436 -1.206338,-1.228436c-0.670188,0 -1.206338,0.545972 -1.206338,1.228436z"/>
        </g>
        <path stroke="#000000" transform="rotate(45.37812805175781 895.9995117187501,183.25061035156253) " id="svg_18" d="m906.881397,244.136171l-41.949843,-55.115524l41.431245,-18.934796l-38.294539,-59.171259l-15.461048,9.991965l10.96598,-57.034585l43.579869,24.883844l-18.40012,10.401328l49.964413,84.989057l-45.673114,15.403684l44.104781,57.431243l-25.158205,8.623002l27.401055,36.500557l-10.065985,0.524567l-42.521013,-50.074842l20.076521,-8.418256l0.000004,0.000016z" stroke-opacity="0" stroke-width="0" fill="#f7e200"/>
        <text stroke="#000000" transform="matrix(1.0866522789001465,0,0,1,-18.760218381881714,0) " font-weight="bold" xml:space="preserve" text-anchor="start" font-family="'Courier New', Courier, monospace" font-size="250" id="svg_17" y="223.054688" x="89.908843" stroke-opacity="0" stroke-width="0" fill="#333333">CEESS</text>
        <rect stroke="#000000" rx="19" id="svg_19" height="31.999998" width="738.999995" y="232.000002" x="60.500006" stroke-opacity="0" stroke-width="0" fill="#333333"/>
    </g>
</svg>