<?xml version="1.0" standalone="no"?><!DOCTYPE svg PUBLIC "-//W3C//DTD SVG 1.1//EN" "http://www.w3.org/Graphics/SVG/1.1/DTD/svg11.dtd"><svg t="1617452046449" class="icon" viewBox="0 0 1024 1024" version="1.1" xmlns="http://www.w3.org/2000/svg" p-id="14507" xmlns:xlink="http://www.w3.org/1999/xlink" width="200" height="200"><defs><style type="text/css"></style></defs><path d="M241.83 689.964c-14.915-0.132-31.743-3.732-44.222-11.382-22.893-14.053-29.306-40.021-20.943-65.671 8.54-26.232 29.062-40.247 64.247-40.313 214.461-0.347 428.924-0.375 643.39 0.319 14.166 0.047 29.981 4.21 42.089 11.4 22.462 13.331 29.995 40.303 22.266 65.428-7.908 25.688-28.097 40.462-58.468 40.547-109.298 0.337-218.6 0.131-327.903 0.15-106.818 0.019-213.646 0.45-320.456-0.478z m643.842-597.17c33.239 0.066 54.59 14.663 63.032 41.784 12.582 40.416-16.176 76.561-62.212 76.67-142.463 0.337-284.915 0.135-427.368 0.14-73.706 0-248.22 0.169-321.936-0.108-30.394-0.108-51.62-13.922-60.75-38.208C61.1 132.253 89.74 93.09 136.372 92.883c108.497-0.478 317.802-0.155 426.29-0.155 107.67-0.009 215.342-0.13 323.01 0.066zM592.66 450.965c-97.791 0-195.6 0.24-293.39-0.117-39.713-0.146-65.803-24.131-65.728-58.814 0.084-34.786 26.137-59.574 65.578-59.653 195.599-0.375 391.19-0.47 586.78 0.436 14.704 0.07 31.27 5.901 43.626 14.095 21.023 13.95 26.86 40.594 18.567 64.416-8.616 24.745-28.205 39.234-57.08 39.356-99.45 0.436-198.903 0.168-298.353 0.168v0.113z m296.072 362.346c37.603 0.178 63.173 25.068 62.925 59.006-0.249 33.76-26.232 58.772-63.483 58.837-197.235 0.31-356.08 0.413-553.316-0.45-13.865-0.065-29.54-5.868-41.109-13.772-20.578-14.053-26.447-40.837-18.281-64.687 8.24-24.01 28.64-38.766 57.46-38.888 99.45-0.412 160.5-0.159 259.939-0.178 98.624-0.028 197.244-0.356 295.864 0.132z" p-id="14508" data-spm-anchor-id="a313x.7781069.0.i2" class="selected" fill="#1296db"></path></svg>